<?xml version="1.0" standalone="no"?>
<!DOCTYPE svg PUBLIC "-//W3C//DTD SVG 20010904//EN"
 "http://www.w3.org/TR/2001/REC-SVG-20010904/DTD/svg10.dtd">
<svg version="1.0" xmlns="http://www.w3.org/2000/svg"
 width="400.000000pt" height="400.000000pt" viewBox="0 0 400.000000 400.000000"
 preserveAspectRatio="xMidYMid meet">
<metadata>
Created by potrace 1.14, written by Peter Selinger 2001-2017
</metadata>
<g transform="translate(0.000000,400.000000) scale(0.100000,-0.100000)"
fill="#000000" stroke="none">
<path d="M0 2000 l0 -2000 2000 0 2000 0 0 2000 0 2000 -2000 0 -2000 0 0
-2000z m2058 325 l52 -165 181 0 c109 0 178 -4 174 -9 -3 -5 -66 -54 -140
-108 -74 -54 -135 -103 -135 -109 0 -5 23 -81 51 -168 28 -87 49 -160 47 -162
-2 -2 -66 41 -141 96 -75 55 -141 100 -147 100 -6 0 -72 -45 -148 -100 -75
-55 -138 -97 -140 -92 -1 4 22 80 52 169 l54 163 -139 100 c-76 56 -141 105
-144 111 -4 5 64 9 174 9 l181 0 52 165 c29 91 55 165 58 165 3 0 29 -74 58
-165z"/>
</g>
</svg>
